<svg xmlns="http://www.w3.org/2000/svg" width="15" height="13.751" viewBox="0 0 15 13.751">
  <g id="logo-a-eye-disabled" transform="translate(0 -0.014)">
    <path id="Path_925" data-name="Path 925" d="M14.845,7.673a2.059,2.059,0,0,0,0-1.566A7.9,7.9,0,0,0,7.5,1.264a8.053,8.053,0,0,0-3.8.943L1.691.2a.625.625,0,0,0-.884.884L8.762,9.035,11.3,11.57l2.012,2.012a.625.625,0,1,0,.884-.883l-1.821-1.821a7.748,7.748,0,0,0,2.474-3.2ZM6.234,4.74A2.454,2.454,0,0,1,7.5,4.39,2.5,2.5,0,0,1,10,6.89a2.455,2.455,0,0,1-.351,1.266Zm0,0" fill="#bcbccb"/>
    <path id="Path_926" data-name="Path 926" d="M7.5,9.39A2.5,2.5,0,0,1,5,6.89a2.428,2.428,0,0,1,.027-.264l-3.11-3.11A7.761,7.761,0,0,0,.155,6.107a2.059,2.059,0,0,0,0,1.566A7.9,7.9,0,0,0,7.5,12.515a8.108,8.108,0,0,0,2.888-.528L7.763,9.363A2.426,2.426,0,0,1,7.5,9.39Zm0,0" fill="#bcbccb"/>
  </g>
</svg>
